<svg width="64" height="64" viewBox="0 0 64 64" fill="none" xmlns="http://www.w3.org/2000/svg">
  <rect width="64" height="64" rx="16" fill="#4F46E5"/>
  <path d="M18 20a4 4 0 0 1 4-4h13.5L46 26.5V44a4 4 0 0 1-4 4H22a4 4 0 0 1-4-4V20Z" fill="white" fill-opacity="0.92"/>
  <path d="M35.5 16 46 26.5H39a3.5 3.5 0 0 1-3.5-3.5V16Z" fill="white" fill-opacity="0.6"/>
  <rect x="23" y="30" width="15" height="2.4" rx="1.2" fill="#4F46E5"/>
  <rect x="23" y="35" width="15" height="2.4" rx="1.2" fill="#4F46E5"/>
  <rect x="23" y="40" width="9" height="2.4" rx="1.2" fill="#4F46E5"/>
</svg>
